<svg fill="white" width="12" height="15" viewBox="0 0 12 15" fill="none" xmlns="http://www.w3.org/2000/svg">
<path d="M11.3334 14.6666H0.666687V13.3333C0.666687 12.4492 1.01788 11.6014 1.643 10.9763C2.26812 10.3511 3.11597 9.99996 4.00002 9.99996H8.00002C8.88408 9.99996 9.73192 10.3511 10.357 10.9763C10.9822 11.6014 11.3334 12.4492 11.3334 13.3333V14.6666ZM6.00002 8.66663C5.47473 8.66663 4.95459 8.56316 4.46929 8.36214C3.98398 8.16113 3.54303 7.86649 3.17159 7.49505C2.80016 7.12362 2.50552 6.68266 2.3045 6.19736C2.10348 5.71206 2.00002 5.19191 2.00002 4.66663C2.00002 4.14134 2.10348 3.62119 2.3045 3.13589C2.50552 2.65059 2.80016 2.20963 3.17159 1.8382C3.54303 1.46676 3.98398 1.17213 4.46929 0.971108C4.95459 0.770089 5.47473 0.666626 6.00002 0.666626C7.06089 0.666626 8.0783 1.08805 8.82845 1.8382C9.57859 2.58834 10 3.60576 10 4.66663C10 5.72749 9.57859 6.74491 8.82845 7.49505C8.0783 8.2452 7.06089 8.66663 6.00002 8.66663Z" fill="#FCE7F3"/>
</svg>
