<svg width="20" height="20" viewBox="0 0 20 20" fill="none" xmlns="http://www.w3.org/2000/svg">
<path d="M6.48047 16.0443C6.48047 16.1224 6.39062 16.1849 6.27734 16.1849C6.14844 16.1966 6.05859 16.1341 6.05859 16.0443C6.05859 15.9661 6.14844 15.9036 6.26172 15.9036C6.37891 15.8919 6.48047 15.9544 6.48047 16.0443ZM5.26562 15.8685C5.23828 15.9466 5.31641 16.0364 5.43359 16.0599C5.53516 16.0989 5.65234 16.0599 5.67578 15.9818C5.69922 15.9036 5.625 15.8138 5.50781 15.7786C5.40625 15.7513 5.29297 15.7903 5.26562 15.8685ZM6.99219 15.8021C6.87891 15.8294 6.80078 15.9036 6.8125 15.9935C6.82422 16.0716 6.92578 16.1224 7.04297 16.095C7.15625 16.0677 7.23438 15.9935 7.22266 15.9153C7.21094 15.8411 7.10547 15.7903 6.99219 15.8021ZM9.5625 0.833313C4.14453 0.833313 0 4.94659 0 10.3646C0 14.6966 2.72656 18.4036 6.62109 19.7083C7.12109 19.7982 7.29688 19.4896 7.29688 19.2357C7.29688 18.9935 7.28516 17.6575 7.28516 16.8372C7.28516 16.8372 4.55078 17.4232 3.97656 15.6732C3.97656 15.6732 3.53125 14.5364 2.89062 14.2435C2.89062 14.2435 1.99609 13.6302 2.95312 13.6419C2.95312 13.6419 3.92578 13.72 4.46094 14.6497C5.31641 16.1575 6.75 15.7239 7.30859 15.4661C7.39844 14.8411 7.65234 14.4075 7.93359 14.1497C5.75 13.9075 3.54688 13.5911 3.54688 9.83331C3.54688 8.75909 3.84375 8.22003 4.46875 7.53253C4.36719 7.27863 4.03516 6.23175 4.57031 4.88019C5.38672 4.62628 7.26562 5.93488 7.26562 5.93488C8.04688 5.71613 8.88672 5.60284 9.71875 5.60284C10.5508 5.60284 11.3906 5.71613 12.1719 5.93488C12.1719 5.93488 14.0508 4.62238 14.8672 4.88019C15.4023 6.23566 15.0703 7.27863 14.9688 7.53253C15.5938 8.22394 15.9766 8.763 15.9766 9.83331C15.9766 13.6028 13.6758 13.9036 11.4922 14.1497C11.8516 14.4583 12.1562 15.0443 12.1562 15.9622C12.1562 17.2786 12.1445 18.9075 12.1445 19.2278C12.1445 19.4818 12.3242 19.7903 12.8203 19.7005C16.7266 18.4036 19.375 14.6966 19.375 10.3646C19.375 4.94659 14.9805 0.833313 9.5625 0.833313ZM3.79688 14.306C3.74609 14.345 3.75781 14.4349 3.82422 14.5091C3.88672 14.5716 3.97656 14.5989 4.02734 14.5482C4.07812 14.5091 4.06641 14.4193 4 14.345C3.9375 14.2825 3.84766 14.2552 3.79688 14.306ZM3.375 13.9896C3.34766 14.0403 3.38672 14.1028 3.46484 14.1419C3.52734 14.181 3.60547 14.1693 3.63281 14.1146C3.66016 14.0638 3.62109 14.0013 3.54297 13.9622C3.46484 13.9388 3.40234 13.9505 3.375 13.9896ZM4.64062 15.3802C4.57812 15.431 4.60156 15.5482 4.69141 15.6224C4.78125 15.7122 4.89453 15.7239 4.94531 15.6614C4.99609 15.6107 4.97266 15.4935 4.89453 15.4193C4.80859 15.3294 4.69141 15.3177 4.64062 15.3802ZM4.19531 14.806C4.13281 14.845 4.13281 14.9466 4.19531 15.0364C4.25781 15.1263 4.36328 15.1653 4.41406 15.1263C4.47656 15.0755 4.47656 14.9739 4.41406 14.8841C4.35938 14.7943 4.25781 14.7552 4.19531 14.806Z" fill="#6B7280"/>
</svg>
