<svg width="24" height="17" viewBox="0 0 24 17" fill="none" xmlns="http://www.w3.org/2000/svg">
<path d="M9.67432 8.82423L2.38645 16.1121C2.03496 16.4636 1.46511 16.4636 1.11366 16.1121L0.263607 15.2621C-0.0872808 14.9112 -0.0879557 14.3425 0.262107 13.9908L6.03794 8.18782L0.262145 2.38488C-0.0879182 2.03317 -0.0872432 1.46448 0.263645 1.1136L1.11366 0.263585C1.46515 -0.0879024 2.035 -0.0879024 2.38645 0.263585L9.67432 7.55144C10.0258 7.90289 10.0258 8.47274 9.67432 8.82423ZM24.0001 15.6878V14.4878C24.0001 13.9908 23.5971 13.5878 23.1001 13.5878H11.7C11.203 13.5878 10.8 13.9908 10.8 14.4878V15.6878C10.8 16.1849 11.203 16.5878 11.7 16.5878H23.1001C23.5971 16.5878 24.0001 16.1849 24.0001 15.6878Z" fill="#111827"/>
</svg>
