{"asset":{"version":"2.0","generator":"THREE.GLTFExporter r178"},"scenes":[{"nodes":[0]}],"scene":0,"nodes":[{"mesh":0}],"bufferViews":[{"buffer":0,"byteOffset":0,"byteLength":65952,"target":34962,"byteStride":12},{"buffer":0,"byteOffset":65952,"byteLength":10992,"target":34963}],"buffers":[{"byteLength":76944,"uri":"data:application/octet-stream;base64,"}],"accessors":[{"bufferView":0,"componentType":5126,"count":5496,"max":[50.542938232421875,17.625017166137695,87.26078796386719],"min":[-49.85706329345703,-16.17498207092285,-101.73921966552734],"type":"VEC3"},{"bufferView":1,"componentType":5123,"count":5496,"max":[5495],"min":[0],"type":"SCALAR"}],"materials":[{"pbrMetallicRoughness":{"metallicFactor":0,"roughnessFactor":1}}],"meshes":[{"primitives":[{"mode":4,"attributes":{"POSITION":0},"indices":1,"material":0}]}]}